<svg width="36" height="36" viewBox="0 0 36 36" fill="none" xmlns="http://www.w3.org/2000/svg">
<path d="M35.8866 10.4123C35.8651 8.93185 35.5913 7.46309 35.0671 6.07843C34.1499 3.71394 32.2822 1.84426 29.9177 0.928975C28.5506 0.414616 27.1053 0.138857 25.6424 0.107566C23.761 0.023469 23.1645 0 18.3886 0C13.6127 0 13.0006 1.31142e-07 11.1328 0.107566C9.6719 0.138857 8.22661 0.414616 6.85956 0.928975C4.49507 1.84426 2.62539 3.71394 1.7101 6.07843C1.19574 7.44549 0.918029 8.89078 0.890649 10.3517C0.806552 12.2351 0.781128 12.8316 0.781128 17.6075C0.781128 22.3834 0.781128 22.9936 0.890649 24.8633C0.919985 26.3262 1.19574 27.7695 1.7101 29.1405C2.62734 31.503 4.49507 33.3727 6.86151 34.288C8.2227 34.8199 9.66799 35.1211 11.1348 35.168C13.0182 35.2521 13.6147 35.2776 18.3906 35.2776C23.1665 35.2776 23.7786 35.2776 25.6464 35.168C27.1073 35.1387 28.5526 34.8629 29.9216 34.3486C32.2861 33.4314 34.1538 31.5617 35.071 29.1991C35.5854 27.8301 35.8612 26.3868 35.8905 24.9219C35.9746 23.0405 36 22.444 36 17.6662C35.9961 12.8903 35.9961 12.284 35.8866 10.4123ZM18.3769 26.6391C13.3819 26.6391 9.33552 22.5927 9.33552 17.5977C9.33552 12.6028 13.3819 8.55634 18.3769 8.55634C23.3679 8.55634 27.4183 12.6028 27.4183 17.5977C27.4183 22.5927 23.3679 26.6391 18.3769 26.6391ZM27.7781 10.3302C26.6105 10.3302 25.6698 9.38753 25.6698 8.22191C25.6698 7.0563 26.6105 6.11363 27.7781 6.11363C28.9418 6.11363 29.8844 7.0563 29.8844 8.22191C29.8844 9.38753 28.9418 10.3302 27.7781 10.3302Z" fill="#E1306C"/>
<path d="M18.3769 23.4708C21.6205 23.4708 24.25 20.8413 24.25 17.5977C24.25 14.3541 21.6205 11.7246 18.3769 11.7246C15.1333 11.7246 12.5038 14.3541 12.5038 17.5977C12.5038 20.8413 15.1333 23.4708 18.3769 23.4708Z" fill="#E1306C"/>
</svg>
