<svg width="35" height="35" viewBox="0 0 35 35" fill="none" xmlns="http://www.w3.org/2000/svg">
<path d="M29.6847 5.07345C26.4193 1.80026 22.0707 0 17.4492 0C7.91022 0 0.148073 7.76215 0.148073 17.3012C0.148073 20.3484 0.942992 23.3254 2.4549 25.9517L0 34.9141L9.17274 32.5059C11.6978 33.8853 14.5423 34.6101 17.4414 34.6101H17.4492C26.9805 34.6101 34.9141 26.848 34.9141 17.309C34.9141 12.6875 32.9501 8.34664 29.6847 5.07345ZM17.4492 31.6954C14.8619 31.6954 12.329 31.0018 10.1235 29.6925L9.60137 29.3808L4.16163 30.807L5.61119 25.4997L5.26828 24.9542C3.82652 22.663 3.07057 20.021 3.07057 17.3012C3.07057 9.37536 9.52343 2.92249 17.457 2.92249C21.2991 2.92249 24.9074 4.41881 27.6195 7.13868C30.3316 9.85855 31.9994 13.4669 31.9916 17.309C31.9916 25.2426 25.375 31.6954 17.4492 31.6954ZM25.3361 20.9251C24.9074 20.7068 22.7799 19.6625 22.3824 19.5223C21.985 19.3742 21.6966 19.304 21.4082 19.7405C21.1199 20.1769 20.2938 21.1433 20.0366 21.4394C19.7872 21.7278 19.5301 21.7667 19.1014 21.5485C16.5608 20.2782 14.893 19.2807 13.2175 16.4049C12.7732 15.6412 13.6617 15.6957 14.4878 14.0436C14.6281 13.7552 14.5579 13.5058 14.4488 13.2876C14.3397 13.0694 13.4746 10.9418 13.1162 10.0768C12.7655 9.23508 12.407 9.35198 12.142 9.3364C11.8926 9.32081 11.6043 9.32081 11.3159 9.32081C11.0275 9.32081 10.5599 9.42992 10.1625 9.85855C9.76503 10.295 8.65058 11.3393 8.65058 13.4669C8.65058 15.5944 10.2015 17.6519 10.4119 17.9402C10.6301 18.2286 13.4591 22.5928 17.7999 24.471C20.5432 25.6556 21.6187 25.7569 22.9903 25.5543C23.8242 25.4296 25.5465 24.51 25.905 23.4969C26.2635 22.4837 26.2635 21.6187 26.1544 21.4394C26.0531 21.2446 25.7647 21.1355 25.3361 20.9251Z" fill="#25D366"/>
</svg>
